<?xml version="1.0" encoding="utf-8"?>
<!-- Generator: Adobe Illustrator 21.0.0, SVG Export Plug-In . SVG Version: 6.00 Build 0)  -->
<svg version="1.1" id="图层_1" xmlns="http://www.w3.org/2000/svg" xmlns:xlink="http://www.w3.org/1999/xlink" x="0px" y="0px"
	 viewBox="0 0 20 24" style="enable-background:new 0 0 20 24;" xml:space="preserve">
<style type="text/css">
	.st0{fill:#C9A467;}
</style>
<g id="Page-1">
	<g id="严选首页" transform="translate(-391.000000, -1197.000000)">
		<g id="严选馆" transform="translate(0.000000, 1069.000000)">
			<g id="Group-48" transform="translate(370.000000, 122.000000)">
				<g id="Group-36">
					<path id="Path-3" class="st0" d="M28.2,29.4c-6.9-3.1-7.1-7.5-4.7-11.8c2.6-5.2,8.2-6.4,6.6-11.1c7.2,3.5,9.3,10.2,6.4,16.8
						c0.1,0,2.5-1.6,2.5-5.3c1.8,3.5,2.3,9.2-5.3,11.5c1.3-2.2,1.5-4.1-0.8-6.3c0.1,1.1-0.7,2.4-1.8,3.5c-2.9-2.1-2.7-4.3-1.8-6.2
						C23.8,23.7,27.7,28.7,28.2,29.4z"/>
				</g>
			</g>
		</g>
	</g>
</g>
</svg>
